# xmcd
#
# Track frame offsets:
#	150
#	53935
#	112047
#	162442
#	221377
#	264935
#
# Disc length: 4093 seconds
#
# Revision: 1
# Processed by: cddbd v1.5.1PL0 Copyright (c) Steve Scherf et al.
# Submitted via: CDex 1.50Beta5
#
DISCID=500ffb06
DTITLE=高田由美 - レディイノセント
DYEAR=1900
DGENRE=
TTITLE0=ベル公爵の館
TTITLE1=ウィリアム叔父
TTITLE2=ソサィアティ・オブ・ミロード
TTITLE3=ジョイス
TTITLE4=ソサィアティ・エスペランサ・
TTITLE5=レディイノセント
EXTD=
EXTT0=
EXTT1=
EXTT2=
EXTT3=
EXTT4=
EXTT5=
PLAYORDER=
